<?xml version="1.0" encoding="utf-8"?>
<!-- Generator: Adobe Illustrator 23.0.3, SVG Export Plug-In . SVG Version: 6.00 Build 0)  -->
<svg version="1.1" id="Icons" xmlns="http://www.w3.org/2000/svg" xmlns:xlink="http://www.w3.org/1999/xlink" x="0px" y="0px"
     viewBox="0 0 32 32" style="enable-background:new 0 0 32 32;" xml:space="preserve">
<style type="text/css">
	.st0{fill:none;stroke:#005fd3;stroke-width:2;stroke-linecap:round;stroke-linejoin:round;stroke-miterlimit:10;} /* Color cambiado a #005fd3 */
	.st1{fill:none;stroke:#005fd3;stroke-width:2;stroke-linecap:round;stroke-linejoin:round;} /* Color cambiado a #005fd3 */
	.st2{fill:none;stroke:#005fd3;stroke-width:2;stroke-linecap:round;stroke-linejoin:round;stroke-dasharray:5.2066,0;} /* Color cambiado a #005fd3 */
</style>
<path class="st0" d="M20,7h-8V5c0-1.1,0.9-2,2-2h4c1.1,0,2,0.9,2,2V7z"/>
<polyline class="st0" points="12,5 6,5 6,29 26,29 26,5 20,5 "/>
<path class="st0" d="M16,11c-2.2,0-4,1.8-4,4c0,2.2,1.8,4,4,4s4-1.8,4-4"/>
<path class="st0" d="M17,10v4h4C21,11.8,19.2,10,17,10z"/>
<line class="st0" x1="10" y1="22" x2="16" y2="22"/>
<line class="st0" x1="10" y1="25" x2="12" y2="25"/>
</svg>
