<?xml version="1.0" ?><!-- Uploaded to: SVG Repo, www.svgrepo.com, Generator: SVG Repo Mixer Tools -->
<svg width="800px" height="800px" viewBox="0 0 1000 1000" data-name="Layer 2" id="Layer_2" xmlns="http://www.w3.org/2000/svg"><defs><style>.cls-1{fill:none;stroke:#020202;stroke-linecap:round;stroke-miterlimit:10;stroke-width:22px;}</style></defs><path class="cls-1" d="M815.37,529.09V470.91a16.94,16.94,0,0,0-15.23-16.85l-66.09-6.7a17,17,0,0,1-14.57-12.18,227.26,227.26,0,0,0-17.57-42.89,17,17,0,0,1,1.83-18.92l42.42-51.13a16.94,16.94,0,0,0-1-22.7l-40.8-41.47a17,17,0,0,0-22.68-1.33l-51.82,41.6A17,17,0,0,1,611,299.88a227.46,227.46,0,0,0-46.18-19.37A17,17,0,0,1,552.64,266l-6.7-66.1a16.94,16.94,0,0,0-16.85-15.23H470.91a16.94,16.94,0,0,0-16.85,15.23l-6.7,66.1a17,17,0,0,1-12.15,14.55A227.46,227.46,0,0,0,389,299.88a17,17,0,0,1-18.92-1.54l-51.82-41.6a17,17,0,0,0-22.68,1.33l-40.8,41.47a16.94,16.94,0,0,0-1,22.7l42.42,51.13a17,17,0,0,1,1.83,18.92,227.26,227.26,0,0,0-17.57,42.89A17,17,0,0,1,266,447.36l-66.09,6.7a16.94,16.94,0,0,0-15.23,16.85v58.18a16.94,16.94,0,0,0,15.23,16.85l66.09,6.7a17,17,0,0,1,14.57,12.18,227.26,227.26,0,0,0,17.57,42.89,17,17,0,0,1-1.83,18.92l-42.42,51.13a16.94,16.94,0,0,0,1,22.7l40.8,41.47a17,17,0,0,0,22.68,1.33l51.82-41.6A17,17,0,0,1,389,700.12a227.46,227.46,0,0,0,46.18,19.37A17,17,0,0,1,447.36,734l6.7,66.1a16.94,16.94,0,0,0,16.85,15.23h58.18a16.94,16.94,0,0,0,16.85-15.23l6.7-66.1a17,17,0,0,1,12.15-14.55A227.46,227.46,0,0,0,611,700.12a17,17,0,0,1,18.92,1.54l51.82,41.6a17,17,0,0,0,22.68-1.33l40.8-41.47a16.94,16.94,0,0,0,1-22.7l-42.42-51.13a17,17,0,0,1-1.83-18.92,227.26,227.26,0,0,0,17.57-42.89,17,17,0,0,1,14.57-12.18l66.09-6.7A16.94,16.94,0,0,0,815.37,529.09Z"/><path class="cls-1" d="M386.2,554a126,126,0,0,0,227.6,0"/><path class="cls-1" d="M386.2,446a126,126,0,0,1,227.6,0"/><path class="cls-1" d="M433.42,534.91a72.13,72.13,0,1,0-2.13-65.68"/></svg>